<svg width="44" height="47" viewBox="0 0 44 47" fill="none" xmlns="http://www.w3.org/2000/svg">
<circle cx="21.7878" cy="21.7878" r="21.7878" fill="#D9D9D9"/>
<path d="M20.7051 35.0116C20.5251 34.4416 20.4951 33.9916 20.6151 33.6616C20.7651 33.3016 21.0051 33.0766 21.3351 32.9866C21.6951 32.8666 22.1001 32.7916 22.5501 32.7616C23.0301 32.7316 23.5401 32.7316 24.0801 32.7616C23.9601 34.2616 23.8851 35.4016 23.8551 36.1816H22.4601C21.8001 36.1816 21.3801 36.1216 21.2001 36.0016C21.0201 35.8816 20.8551 35.5516 20.7051 35.0116ZM28.4001 19.6216C28.4001 21.2716 28.2201 22.2016 27.8601 22.4116C27.4701 22.6216 27.2751 22.8466 27.2751 23.0866C27.2751 23.3866 26.6901 24.1816 25.5201 25.4716C24.6201 26.4616 24.0951 27.1216 23.9451 27.4516C23.7951 27.7816 23.7801 28.3516 23.9001 29.1616C24.0201 30.1816 23.9601 30.8116 23.7201 31.0516C23.4801 31.2916 22.9701 31.2466 22.1901 30.9166C21.0201 30.4666 20.4351 29.2666 20.4351 27.3166C20.4351 26.7166 20.5101 26.2966 20.6601 26.0566C20.8101 25.7866 21.1851 25.4416 21.7851 25.0216C24.0351 23.5516 25.1751 21.7066 25.2051 19.4866C25.2351 17.9266 25.0251 16.9816 24.5751 16.6516C24.1551 16.2916 22.9701 16.1866 21.0201 16.3366C18.9201 16.5166 17.5701 16.4116 16.9701 16.0216C16.4601 15.6916 16.1901 15.3616 16.1601 15.0316C16.1301 14.6716 16.3401 14.3416 16.7901 14.0416C17.2701 13.7416 17.9451 13.4866 18.8151 13.2766C20.7651 12.7966 22.5501 12.7816 24.1701 13.2316C25.8201 13.6816 26.8701 14.4616 27.3201 15.5716C27.6801 16.4416 27.9351 16.9066 28.0851 16.9666C28.2951 17.0566 28.4001 17.9416 28.4001 19.6216Z" fill="black"/>
</svg>
