<svg width="319" height="237" viewBox="0 0 319 237" fill="none" xmlns="http://www.w3.org/2000/svg">
<path d="M163.466 206.75C103.128 196.568 114.099 191.521 101.561 187.692L2.3036 235.991L50.6263 175.943C44.7927 172.897 31.1405 165.761 23.1999 161.584C13.2742 156.362 -6.05492 96.5759 2.3036 73.8623C10.6621 51.1486 34.1704 15.6422 65.7761 8.07098C97.3818 0.499764 141.786 -0.283456 191.938 0.499765C242.089 1.28299 275 25.8241 299.031 49.8432C323.062 73.8623 318.883 101.014 314.703 125.033C310.524 149.052 299.031 198.396 256.194 206.75C213.356 215.105 223.804 216.932 163.466 206.75Z" stroke="black" stroke-width="0.518092"/>
</svg>
